<svg id="Layer_1" data-name="Layer 1" xmlns="http://www.w3.org/2000/svg" viewBox="0 0 221 122"><defs><style>.cls-1{fill:#666;}.cls-2{fill:none;stroke:#666;stroke-miterlimit:10;stroke-width:1.5px;}</style></defs><title>Artboard 5 copy 11</title><path class="cls-1" d="M208.35,64.9c.1-.4.3-.7.4-1.1a19.22,19.22,0,0,1,1.4-7.5,20,20,0,0,1,9.2-9.6c.1,0,.2-.1.4-.2a16.13,16.13,0,0,1,0,2.2,23.43,23.43,0,0,1-5,12.9,7,7,0,0,1-5.3,2.9c-.2,0-.3.2-.5.4-1.2,1.3-1.1,2.9-1.3,4.4a53.55,53.55,0,0,1-2.7,11c0,.1-.1.2-.1.3s.1.1.2.1a3.51,3.51,0,0,0,.5-.8,18.78,18.78,0,0,1,4.2-7.4,21.62,21.62,0,0,1,11.3-6.1c-.1.7-.2,1.2-.3,1.8A19.84,19.84,0,0,1,217,75a16.87,16.87,0,0,1-5.4,4.9,7.38,7.38,0,0,1-5.4,1,1.07,1.07,0,0,0-.6.2,8,8,0,0,0-2,2.8,59.54,59.54,0,0,1-7.5,12.3,1.38,1.38,0,0,0-.3.4,1.13,1.13,0,0,0,1.1-.7,19.93,19.93,0,0,1,6.6-6.3,19.44,19.44,0,0,1,11.8-2.4c.1,0,.1,0,.3.1a11.11,11.11,0,0,1-.7,1.6,20.41,20.41,0,0,1-11.2,8.6,8.64,8.64,0,0,1-6.5-.5c-.1,0-.2-.1-.3-.1a5.7,5.7,0,0,0-2.2,1.1,60.25,60.25,0,0,1-10.9,9.9l-.1.1c0,.1.1.1.1.2a11.73,11.73,0,0,0,1.1-.5,16.48,16.48,0,0,1,8.9-4,21.69,21.69,0,0,1,11.5,1.8c.1,0,.1.1.2.2-.3.3-.6.7-.9,1a19.75,19.75,0,0,1-6.4,3.4,21.68,21.68,0,0,1-8,1.3,7.87,7.87,0,0,1-5.6-2.3l-.2-.2c-.8.1-1.7-.1-2.3.3a58.35,58.35,0,0,1-13.4,6.2c-.1,0-.2.1-.3.1v.2a2.34,2.34,0,0,0,1.2-.2,20,20,0,0,1,7.2-1.7,20.74,20.74,0,0,1,12.9,4.6c.2.2.4.3.7.6-.6.3-1.2.7-1.8,1a22.12,22.12,0,0,1-6.2,1.3,22.73,22.73,0,0,1-9-1,7.34,7.34,0,0,1-4.3-3.6.22.22,0,0,0-.2-.2,10.86,10.86,0,0,0-2.5-.4,60.79,60.79,0,0,1-10.4,1.6h-.4c0-.9.3-1.2,1-1.2a55.62,55.62,0,0,0,10.8-2c.5-.1.7-.4.9-.9a5.22,5.22,0,0,0,.4-2.1c-.1-3.7,1.5-6.8,4-9.5a16.82,16.82,0,0,1,6.7-4.3,4.17,4.17,0,0,1,.6-.2c-1.1,3.4-1.7,7-3.3,10.2a10,10,0,0,1-5.1,4.8,15.45,15.45,0,0,1-2.3.6.1.1,0,0,0-.1-.1,10.37,10.37,0,0,0-.4,1c.4-.1.7-.2,1-.3a50.36,50.36,0,0,0,13.3-6.7,2.18,2.18,0,0,0,.5-.8,5.19,5.19,0,0,0-.3-3,14.11,14.11,0,0,1,.8-9.7,18.3,18.3,0,0,1,5.1-6.9c.2-.1.3-.3.6-.4.1,1.4.2,2.6.2,3.9a33.06,33.06,0,0,1-.1,7.7,9.06,9.06,0,0,1-4,6.5,4.35,4.35,0,0,1-.7.4c-.9.4-.9.5-.9,1.6,1.2-1,2.4-1.9,3.5-2.9a51.82,51.82,0,0,0,7.2-7.6,1.69,1.69,0,0,0,.3-1,6,6,0,0,0-1.2-3.1,13.6,13.6,0,0,1-2.1-8.3,18.29,18.29,0,0,1,2.8-9c.1-.2.3-.4.5-.7.2.7.5,1.3.7,1.9.9,2.5,1.8,5,2.5,7.6a10.29,10.29,0,0,1-.5,7.5,7.9,7.9,0,0,1-1.9,2.5c-.3.2-.2.9-.3,1.3.1,0,.2.1.3.1l2.1-3a57.77,57.77,0,0,0,5.6-11.1c.1-.3.2-.6-.1-.9v-.1a5.48,5.48,0,0,0-2.3-2.9,15.32,15.32,0,0,1-5-10,17.74,17.74,0,0,1,.5-6.5,1.42,1.42,0,0,1,.2-.6.35.35,0,0,0,.1-.2c2.3,3.2,5.1,6.1,6.8,9.7a8.94,8.94,0,0,1,.9,6.4,20,20,0,0,1-1,2.1.44.44,0,0,0-.1.5,3,3,0,0,0,.6,1.1c.5-1.7,1-3.5,1.5-5.2a59.56,59.56,0,0,0,1.6-9.4,1.75,1.75,0,0,0-.4-1.2,4.46,4.46,0,0,0-2.6-1.9c-2.9-1.2-4.8-3.5-6.3-6.2a17.94,17.94,0,0,1-2.1-9.1.76.76,0,0,1,.1-.4c2.7,2.3,5.7,4.1,8.1,6.7a10.2,10.2,0,0,1,2.8,5.9,9.68,9.68,0,0,1-.2,2.9c-.1.9-.1,1.1.8,1.7,0-1.4.2-2.8.1-4.1-.2-2.9-.4-5.8-.7-8.6a23.25,23.25,0,0,0-.5-2.8.66.66,0,0,0-.4-.5,5.65,5.65,0,0,0-3.3-1.3,13.38,13.38,0,0,1-8.8-5.8,16.65,16.65,0,0,1-2.7-5.7,1.48,1.48,0,0,1-.1-.7c4,1.8,8.3,2.8,11.6,5.8a7,7,0,0,1,2.4,5.9.71.71,0,0,0,.3.6,3.6,3.6,0,0,0,.9.5c-.4-1.4-.7-2.7-1-3.9a69.26,69.26,0,0,0-3.7-9.9c-.1-.3-.4-.4-.7-.6a5.63,5.63,0,0,0-3.4-.3,13.25,13.25,0,0,1-10.3-3.9,23,23,0,0,1-2.8-3.4,5.74,5.74,0,0,0-.4-.7l2.5.3A34.79,34.79,0,0,1,194,25a8.43,8.43,0,0,1,3.8,2.1,5.44,5.44,0,0,1,1.8,3.3c0,.4.2.5.5.6s.6.2,1,.3c-.7-1.4-1.4-2.6-2.1-3.8-1.5-2.3-3-4.5-4.6-6.8a2,2,0,0,0-.8-.4,5.43,5.43,0,0,0-3.1.2,13.51,13.51,0,0,1-12.6-3.3c-.6-.5-1-1.1-1.5-1.6-.1-.1-.1-.2-.2-.3.8-.1,1.5-.1,2.2-.2a32.61,32.61,0,0,1,7-.2,9,9,0,0,1,5.6,2.5,8.28,8.28,0,0,1,1.1,1.5c.4.8.5.9,1.6.8-.2-.3-.4-.5-.6-.8a48.33,48.33,0,0,0-7.2-7.1l-.6-.3a13.53,13.53,0,0,1-11.3-8c-.5-1-.8-2.2-1.2-3.2.1,0,.1-.1.2-.1.3.1.7.3,1,.4,2.2.9,4.5,1.8,6.7,2.8a10.34,10.34,0,0,1,4,3.2,5.53,5.53,0,0,1,1.3,4.5c0,.1.1.4.2.4a65.59,65.59,0,0,1,9.6,10.1l.2.2a1.34,1.34,0,0,0-.4-1.6A16.81,16.81,0,0,1,191,9.6a21.05,21.05,0,0,1,.5-6.6c.1-.3.2-.6.4-1.1A20.79,20.79,0,0,1,194,4a19,19,0,0,1,4.5,8.8,9.41,9.41,0,0,1-.3,5.5,5.11,5.11,0,0,1-1.5,2.1c-.1.1-.3.2-.2.2.1.8-.1,1.7.3,2.3a66.3,66.3,0,0,1,7.1,12.4,1.6,1.6,0,0,0-.1-1.5,17.4,17.4,0,0,1-.8-15.4c.5-1.3,1.3-2.4,1.9-3.6h.2a11.78,11.78,0,0,1,1.1,1.9,24.11,24.11,0,0,1,2,12.4,6.94,6.94,0,0,1-3.2,5.5c-.1.1-.3.2-.3.3a10.44,10.44,0,0,0,0,2.5,64.46,64.46,0,0,1,3.2,12.2,4.33,4.33,0,0,1,.1.5,2.59,2.59,0,0,0,.3-1.7,21,21,0,0,1-.3-9,16.44,16.44,0,0,1,5.3-8.8c.3-.2.5-.5.9-.8a21,21,0,0,1,.6,2.4,25.79,25.79,0,0,1-.8,12,7.5,7.5,0,0,1-4.7,5.1c-.1.1-.3.2-.4.3-.3.6-.5,1.2-.8,1.9v.3a77.1,77.1,0,0,1,.2,13.6C208.25,64.9,208.35,64.9,208.35,64.9Z"/><path class="cls-1" d="M25.35,94.6c.2-.8.2-1.3-.5-1.8a6.58,6.58,0,0,1-2.1-3.7,9.66,9.66,0,0,1,.2-6.5c.8-2.6,1.7-5.1,2.6-7.6.1-.4.3-.7.5-1.3.6,1.1,1.1,1.9,1.6,2.9a16.61,16.61,0,0,1,.7,13.1,17.79,17.79,0,0,1-1.7,3c-.2.4-.3.8-.5,1.2-.4,1.2.2,2,.9,2.9a58.47,58.47,0,0,0,9.5,9.1c.1.1.3.2.4.3.1-1,0-1.1-.9-1.5a8.69,8.69,0,0,1-4.6-6.1,25.69,25.69,0,0,1-.3-6.8c.1-1.8.2-3.7.4-5.7a20.32,20.32,0,0,1,2.1,2,17.14,17.14,0,0,1,4.8,11.9,15.58,15.58,0,0,1-.8,4.2,7.1,7.1,0,0,0,.1,2.5c0,.1.2.2.3.3a52.17,52.17,0,0,0,14,6.9c.1,0,.3.1.4.1-.1-.9-.2-.9-1-1a8,8,0,0,1-1.5-.3,10.11,10.11,0,0,1-5.8-6c-.9-2.4-1.5-4.9-2.3-7.4-.2-.5-.3-1.1-.5-1.7.2,0,.3.1.4.1a16.11,16.11,0,0,1,9.9,9.2,15.38,15.38,0,0,1,.9,5.2,8.3,8.3,0,0,0,.6,2.1,1.07,1.07,0,0,0,.6.2,55.62,55.62,0,0,0,10.8,2c.8.1,1,.3,1.1,1.3-1.1-.1-2.1-.1-3.2-.3-2.6-.4-5.2-1-7.8-1.4a6.72,6.72,0,0,0-2.4.4c-.1,0-.1.1-.1.2-1.1,2.2-3.1,3.3-5.4,4a22.94,22.94,0,0,1-10.1.4,19.09,19.09,0,0,1-4.1-1.1c-.6-.2-1.1-.6-1.8-.9,1.1-.8,1.9-1.5,2.9-2.1a19.6,19.6,0,0,1,11.8-3.1,24.91,24.91,0,0,1,6.1,1.6,2.44,2.44,0,0,0,1.2,0c-1.8-.7-3.6-1.3-5.3-2a49.2,49.2,0,0,1-8.2-4.3,5.07,5.07,0,0,0-2.4-.4.22.22,0,0,0-.2.2,7,7,0,0,1-5.2,2.3,23.12,23.12,0,0,1-14.6-4.4c-.3-.2-.5-.5-.8-.7-.1-.1-.2-.3-.4-.5a18,18,0,0,1,2.1-.8,20.15,20.15,0,0,1,13.7-.1,19,19,0,0,1,4.9,3,3.88,3.88,0,0,0,1.1.6c0-.1.1-.1.1-.2s-.3-.2-.4-.3a57.82,57.82,0,0,1-10.3-9.5,7,7,0,0,0-2.4-1.3h-.3a9.53,9.53,0,0,1-8.4-.1,20.82,20.82,0,0,1-8.9-7.2,26,26,0,0,1-1.3-2.4,18.81,18.81,0,0,1,5.3,0,18.61,18.61,0,0,1,13.4,8.6,3.45,3.45,0,0,0,.9.8c.1,0,.1-.1.2-.1-.1-.1-.1-.2-.2-.3A72.31,72.31,0,0,1,17,82.7c-.3-.7-1.1-1.2-1.6-1.8-.1-.1-.2,0-.3,0-2.9.6-5.2-.5-7.4-2.3a24.38,24.38,0,0,1-6.9-9.3A21.28,21.28,0,0,1,0,66.6l.2-.2a15.45,15.45,0,0,1,2.3.6,19.9,19.9,0,0,1,11.6,9.3c.6,1.2,1,2.4,1.5,3.7a3.51,3.51,0,0,0,.5.8c.1,0,.1-.1.2-.1-.1-.2-.1-.3-.2-.5a60.11,60.11,0,0,1-3-13.2,6.78,6.78,0,0,0-1.2-2.2c0-.1-.2-.1-.3-.1a7.25,7.25,0,0,1-5.7-3.3,22.83,22.83,0,0,1-4.6-14,.9.9,0,0,1,.1-.5.37.37,0,0,1,.3.1,19.42,19.42,0,0,1,10,11.4,22.39,22.39,0,0,1,.8,5.7,3.37,3.37,0,0,0,.4,1.2V61.2c.1-3.1.2-6.1.4-9.2a11.7,11.7,0,0,0-.5-2,1.5,1.5,0,0,0-1.1-1.2,7,7,0,0,1-4-4.4,24.13,24.13,0,0,1-.8-13.3c.1-.3.2-.6.3-1,0-.1.1-.2.2-.3a19.5,19.5,0,0,1,4.7,5.6,17.14,17.14,0,0,1,1.5,10.9c-.1.7-.3,1.4-.4,2.1,0,.5.1,1,.1,1.4h.2c.2-1,.4-2.1.6-3.1a58.43,58.43,0,0,1,2.7-9.3c.4-.9,0-1.8.1-2.7a.22.22,0,0,0-.2-.2,7,7,0,0,1-3.3-6,24.82,24.82,0,0,1,2.3-12.3,11.91,11.91,0,0,1,.9-1.5,16.06,16.06,0,0,1,2.6,4.8A18.28,18.28,0,0,1,18,33.8a6.58,6.58,0,0,0-.4,1.5h.2c.7-1.4,1.3-2.8,2.1-4.2,1.6-2.7,3.2-5.3,4.9-7.9.5-.8.3-1.7.5-2.5a.22.22,0,0,0-.2-.2,5.42,5.42,0,0,1-2-4.1,12.61,12.61,0,0,1,.8-5.8,19.94,19.94,0,0,1,5.4-8c.2-.2.4-.3.7-.6,0,.6.3,1.4.4,2.2.6,4.5.2,8.9-2.3,12.9A24.72,24.72,0,0,1,26,19.8a1.65,1.65,0,0,0-.4,1.8c.1-.1.1-.3.2-.4a62.5,62.5,0,0,1,8.6-9.2,2.25,2.25,0,0,0,1-2.2,5.48,5.48,0,0,1,1.9-4.1,15,15,0,0,1,5-3.3c2-.8,4.1-1.6,6.2-2.4,0,.2-.1.4-.1.6-1.6,5.6-5.1,9.3-10.9,10.6-.1,0-.2.1-.3.1a3.81,3.81,0,0,0-2.6,1.1,65.9,65.9,0,0,0-6.8,7.2c.8.2,1.1,0,1.5-.7a6.59,6.59,0,0,1,4.1-3.4,14.75,14.75,0,0,1,5.9-.7c1.8.1,3.6.3,5.4.4a1.34,1.34,0,0,1,.5.1A17.41,17.41,0,0,1,44,16.7a14,14,0,0,1-12.1,4.1,6.64,6.64,0,0,1-2-.6,3.33,3.33,0,0,0-1.4-.1,2.84,2.84,0,0,0-2.3,1.5,64.35,64.35,0,0,0-5.6,9,4.88,4.88,0,0,0-.3.7,2.32,2.32,0,0,0,1-.4,1,1,0,0,0,.4-.5,6.16,6.16,0,0,1,3.5-4.6,14,14,0,0,1,4.9-1.5l7.1-.9a3.33,3.33,0,0,1-.3.6,15,15,0,0,1-10.8,7.4,13.81,13.81,0,0,1-3.5-.1,2.85,2.85,0,0,0-1.6.2,2.7,2.7,0,0,0-1.8,1.8A68,68,0,0,0,15,45.8V46c.9-.3,1.1-.5,1.1-1.3a6.53,6.53,0,0,1,2.4-5.6,21.11,21.11,0,0,1,4-2.6c2.4-1.2,4.9-2.1,7.5-3.2a8.11,8.11,0,0,1-.3,1.1,16.4,16.4,0,0,1-8.3,10.1A13.72,13.72,0,0,1,17,45.7a2.46,2.46,0,0,0-1.1.4c-1.2.5-1.4,1.6-1.6,2.8a59.89,59.89,0,0,0-.8,14c.8-.5.9-.8.7-1.6a8.77,8.77,0,0,1,1.5-7.3,19.93,19.93,0,0,1,4-4.2c1.7-1.3,3.4-2.6,5.3-4.1-.1,1.3-.1,2.5-.2,3.6a16.21,16.21,0,0,1-5.7,10.6,12.74,12.74,0,0,1-3.6,2,2.76,2.76,0,0,0-.9.7c-.2.2-.3.5-.5.7-.6.4-.5,1-.5,1.6a65.19,65.19,0,0,0,2.9,13.8,4.17,4.17,0,0,1,.2.6,10.41,10.41,0,0,0,.5-1.2.6.6,0,0,0-.1-.4,5.63,5.63,0,0,1-1.3-4.1,10.11,10.11,0,0,1,1.5-5.1A43.87,43.87,0,0,1,22,61.9c.6-.8,1.2-1.6,1.9-2.5.2,1.2.5,2.3.6,3.4a16.75,16.75,0,0,1-3.4,12.4,21.06,21.06,0,0,1-2.7,2.5,5.5,5.5,0,0,0-.7.9c.3,0,.3.2.2.4a1.86,1.86,0,0,0-.1,1.9,55.17,55.17,0,0,0,7.2,13A1.61,1.61,0,0,0,25.35,94.6Z"/><path class="cls-1" d="M103.18,106.58a4.5,4.5,0,0,1-1.58,2.8l-1.7,1.81h3.53v1.69H97.15V111.5l3-3.18a2.52,2.52,0,0,0,.8-1.44c0-.48-.35-.76-1-.76a3.85,3.85,0,0,0-2.29,1.06l-.8-1.53a5.7,5.7,0,0,1,3.41-1.26C102,104.39,103.18,105.25,103.18,106.58Z"/><path class="cls-1" d="M111.77,108.67c0,2.75-1.33,4.27-3.7,4.27s-3.73-1.52-3.73-4.27,1.33-4.26,3.73-4.26S111.77,105.94,111.77,108.67Zm-5.24,0c0,1.92.46,2.71,1.54,2.71s1.52-.79,1.52-2.71-.47-2.7-1.52-2.7S106.53,106.75,106.53,108.67Z"/><path class="cls-1" d="M113.91,112.88v-6.69h-1.54v-1.72h3.68v8.41Z"/><path class="cls-1" d="M121.06,112.88h-2.25l3-6.7h-2.32v1.17h-1.87v-2.87h6.54v1.46Z"/><line class="cls-2" x1="76" y1="109" x2="90" y2="109"/><line class="cls-2" x1="131" y1="109" x2="145" y2="109"/><path class="cls-1" d="M83.55,10.29h9.27c.28,0,.38.09.38.37v.84H84.85V75.43H136c.28,0,.37-.1.37-.38V11.87c0-.28-.09-.37-.37-.37h-8.26V10.29h9.74V96.58H83.64C83.55,67.91,83.55,39.05,83.55,10.29ZM96.16,81.83a.65.65,0,0,1,.1.37C97.19,85.63,98.11,89,99,92.4c.09.19.09.38.37.28h.74c.38,0,.38,0,.38-.37v-13c0-.18-.1-.18-.19-.18h-.65a.25.25,0,0,0-.28.28V89.53a.29.29,0,0,1-.09-.19c-.93-3.24-1.76-6.58-2.69-9.83-.09-.28-.19-.47-.47-.37h-.74c-.37,0-.37,0-.37.37v13c0,.18.09.18.19.18h.65c.27,0,.27-.09.27-.37V81.83Zm5.76-2.69V92.4a.24.24,0,0,0,.28.28h2.32a2.54,2.54,0,0,0,1.94-.74,2.71,2.71,0,0,0,.65-2V81.46a2.22,2.22,0,0,0-2-2.23C104.14,79.14,103,79.14,101.92,79.14ZM115,86.84h1.39a1.23,1.23,0,0,1,1.39,1.39V92.4c0,.19,0,.28.28.28h.65c.28,0,.28-.09.28-.28V88.14a1.6,1.6,0,0,0-.09-.65,1.65,1.65,0,0,0-1.12-1.21c.84-.56,1.12-.83,1.12-1.85V81.09a1.84,1.84,0,0,0-1.77-1.77c-.92-.09-1.94,0-2.87-.09h-.37V92.68h1.2C115,90.73,115,88.79,115,86.84ZM92.64,85.07v5.48a1,1,0,0,1-1,1.11h-.37c-1.21,0-1.58-.28-1.58-1.48V79.51c0-.28-.09-.37-.28-.37h-.55c-.38,0-.38,0-.38.37V90.09a2.39,2.39,0,0,0,.1.83A1.87,1.87,0,0,0,90,92.59a4.79,4.79,0,0,0,2.32,0,1.79,1.79,0,0,0,1.39-1.39,2.42,2.42,0,0,0,.1-.84V79.23c0-.19-.1-.19-.19-.19H93c-.28,0-.37.1-.37.38Zm39.15.84h0V81a1.65,1.65,0,0,0-1.57-1.76,7.74,7.74,0,0,0-2,0,1.69,1.69,0,0,0-1.58,1.58c0,.18-.09.46-.09.65V91A1.69,1.69,0,0,0,128,92.68a10.45,10.45,0,0,0,1.76.1,1.84,1.84,0,0,0,1.86-2A45,45,0,0,0,131.79,85.91Zm-7.7-.19a1.57,1.57,0,0,0,1.12-1.57c0-1,.09-2.14,0-3.16a1.67,1.67,0,0,0-1.58-1.76,5.77,5.77,0,0,0-1.76,0,1.64,1.64,0,0,0-1.58,1.67,11,11,0,0,0-.09,1.76c0,.74,0,.74.74.74a.25.25,0,0,0,.28-.27V81.46a1,1,0,0,1,.92-1.12,2,2,0,0,1,1,0,1,1,0,0,1,.93,1v3a1.06,1.06,0,0,1-1,1.12h-.93c-.74,0-.65-.1-.65.74a.25.25,0,0,0,.28.28h1.3c.74.09,1.12.37,1.12,1.11v3.25a1,1,0,0,1-.93,1,2.36,2.36,0,0,1-1.12,0,1,1,0,0,1-.92-.93,8.32,8.32,0,0,1,0-1.58c0-.83,0-.83-.84-.83h0c-.09.09-.18.09-.18.18a26.76,26.76,0,0,0,.09,2.69A1.76,1.76,0,0,0,121.77,93a7.74,7.74,0,0,0,2,0,1.62,1.62,0,0,0,1.58-1.58,30.85,30.85,0,0,0,0-4.08,1.2,1.2,0,0,0-.83-1.11C124.28,85.82,124.28,85.72,124.09,85.72Zm-11.69-.46h-2.78V80.34h2.87V79.23h-4.08V92.68h4.08V91.57h-2.87v-5.2h2.78Z"/><path class="cls-1" d="M130.77,43.79v17a9.49,9.49,0,0,1-.46,3.24,5.92,5.92,0,0,1-4.73,4.18,11.92,11.92,0,0,1-2.51.28c-1.11.09-2.22,0-3.43,0a8.52,8.52,0,0,1-3.71-.93,6.26,6.26,0,0,1-3.25-4.64,9.57,9.57,0,0,1-.19-2.32v-34a9.61,9.61,0,0,1,.56-3.25,6.28,6.28,0,0,1,4.64-4.08,13,13,0,0,1,2.69-.28c1-.09,2.14,0,3.25,0a7.6,7.6,0,0,1,3.71.93,6.28,6.28,0,0,1,3.34,4.55,9.91,9.91,0,0,1,.19,2.41C130.87,32.56,130.77,38.22,130.77,43.79Zm-2.69,0V26a4.81,4.81,0,0,0-1-2.78,4.37,4.37,0,0,0-3.25-1.58c-1-.09-2-.09-3.06-.09a11.8,11.8,0,0,0-1.76.18,4.24,4.24,0,0,0-3.34,2.88,6.7,6.7,0,0,0-.37,2.32V60.39a9.25,9.25,0,0,0,.09,1.58,4.18,4.18,0,0,0,3.43,3.81,15.08,15.08,0,0,0,5.76,0A4,4,0,0,0,127.8,63a7.73,7.73,0,0,0,.38-2.13C128.08,55.2,128.08,49.54,128.08,43.79Z"/><path class="cls-1" d="M94,44.44V41.93h5a7.8,7.8,0,0,0,2.14-.37,4.61,4.61,0,0,0,3.24-3.9,12.91,12.91,0,0,0,.19-1.85V27a11.61,11.61,0,0,0-.19-1.85,4.05,4.05,0,0,0-3.71-3.44,15.6,15.6,0,0,0-5,0,4.22,4.22,0,0,0-3.52,3.72,7.37,7.37,0,0,0-.1,1.48v7h-2.6V26.25a8,8,0,0,1,1-4.08,6.09,6.09,0,0,1,4.36-3,21.24,21.24,0,0,1,2.5-.28c1.21,0,2.32,0,3.53.09a6.62,6.62,0,0,1,4.91,2.42,7.06,7.06,0,0,1,1.4,3.8,12.27,12.27,0,0,1,.09,1.86v8.53a10,10,0,0,1-.74,4A5.94,5.94,0,0,1,103,42.77c-.09,0-.18.09-.37.09.46.18.83.28,1.3.46a5.64,5.64,0,0,1,3.34,4.36,10.13,10.13,0,0,1,.18,2.32V60.58a11.28,11.28,0,0,1-.55,3.53A6,6,0,0,1,102.38,68a9.89,9.89,0,0,1-2.41.28c-1.39,0-2.78,0-4.18-.09a6.44,6.44,0,0,1-4.91-2.51,7.44,7.44,0,0,1-1.4-3.43,16.17,16.17,0,0,1-.09-2.13V52.79c0-.28.09-.37.37-.37h1.95c.37,0,.37,0,.37.37v7.6a8,8,0,0,0,.28,2,4.06,4.06,0,0,0,3.43,3.06,10.7,10.7,0,0,0,1.77.18c1.11,0,2.32,0,3.43-.09a4.33,4.33,0,0,0,4-4.17c0-.47.09-.93.09-1.4V49.82a6.35,6.35,0,0,0-.37-2.32,4.58,4.58,0,0,0-3.9-3.25A11.56,11.56,0,0,0,99,44.06H94.77C94.31,44.44,94.22,44.44,94,44.44Z"/><path class="cls-1" d="M110.73,14.37V11.78c0-1.21,0-2.51-.09-3.72,0-.46-.19-.74-.65-.74a.09.09,0,0,1-.09-.09c.09-.09.09-.19.18-.19.74-.18,1.49-.27,2.23-.46v2.6c.37-.09.65-.19.93-.28a2.11,2.11,0,0,1,2.5,1.76,3.42,3.42,0,0,1-.09,1.95,2.7,2.7,0,0,1-2.69,2A16.78,16.78,0,0,1,110.73,14.37Zm3.43-2.78a3.15,3.15,0,0,0-.37-1.67,1,1,0,0,0-1.2-.46c-.19,0-.19.09-.19.27v4.09c0,.28.09.28.28.28a1.2,1.2,0,0,0,1.11-.84A3.15,3.15,0,0,0,114.16,11.59Z"/><path class="cls-1" d="M97.09,10.76v.92a6.46,6.46,0,0,0,.1,1.39c.09.75.27.93,1,1h.18v.27H94.31V14.1h.18c.56-.1.84-.28.84-.84.09-1.11.09-2.23.09-3.34a16.17,16.17,0,0,0-.09-2c-.09-.56-.28-.74-.84-.84-.18,0-.27-.09-.18-.27h6.4V8.53c0,.28-.09.46-.37.46-.09-.09-.09-.28-.19-.37a1.73,1.73,0,0,0-1.94-1.3H97.09v3.16H98a1.14,1.14,0,0,0,.84-.84c.09-.18.18-.28.37-.18V12c-.19.09-.28.09-.37-.18-.19-.75-.47-.84-1.21-.84A.7.7,0,0,0,97.09,10.76Z"/><path class="cls-1" d="M99.88,11.68A2.75,2.75,0,0,1,102,8.81a2.7,2.7,0,0,1,3.06,1.2,3.3,3.3,0,0,1-.09,3.34,2.85,2.85,0,0,1-2.88,1.21A2.68,2.68,0,0,1,99.88,11.68Zm1.67-.09a5.46,5.46,0,0,0,.46,2.13c.19.28.37.56.74.56a.8.8,0,0,0,.74-.56l.28-1.11a5.6,5.6,0,0,0-.18-2.5c-.19-.56-.47-.84-.93-.84s-.74.28-.84.93A4.65,4.65,0,0,0,101.55,11.59Z"/><path class="cls-1" d="M121.49,11.4h-3.43a2.08,2.08,0,0,0,3.25,2c.18.09.18.18.09.27a2.92,2.92,0,0,1-3,.75,2.59,2.59,0,0,1-2-2.14,2.86,2.86,0,0,1,.84-2.78A2.76,2.76,0,0,1,120.2,9a2.18,2.18,0,0,1,1.29,1.67Zm-3.43-.46h1.58a.19.19,0,0,0,.18-.18c-.09-.47-.09-.84-.18-1.3a.53.53,0,0,0-1-.1A2.19,2.19,0,0,0,118.06,10.94Z"/><path class="cls-1" d="M121.87,12.61a.28.28,0,0,0,.18-.09l.09.09c.19.28.28.65.47.93a1.14,1.14,0,0,0,1.3.46.89.89,0,0,0,.74-.65.74.74,0,0,0-.37-.83,2.69,2.69,0,0,0-.74-.37c-.28-.1-.47-.19-.75-.28a1.57,1.57,0,0,1-.18-2.6,2.28,2.28,0,0,1,1.48-.56,9.46,9.46,0,0,1,1.58.19c.19,0,.28.09.28.37v.93c0,.09-.09.18-.09.28-.1-.1-.19-.1-.19-.19-.19-.28-.28-.65-.56-.83a1.25,1.25,0,0,0-.83-.28c-.28-.09-.56.18-.74.46a.84.84,0,0,0,.18.93,1.84,1.84,0,0,0,.74.37,2,2,0,0,1,.75.37,1.51,1.51,0,0,1,1,1.49,1.7,1.7,0,0,1-1,1.57,3.09,3.09,0,0,1-1.58.19l-1.39-.28A.29.29,0,0,1,122,14,7.22,7.22,0,0,1,121.87,12.61Z"/><path class="cls-1" d="M108,8.71V9.92c.56-.93,1.2-1.48,2.32-1-.19.56-.37,1-.56,1.48a2,2,0,0,0-1.3-.27c-.37.09-.46.18-.46.55v2.6c0,.65.18.74.83.74H109v.28h-3.34V14c.65-.18.74-.28.74-.93V10c0-.46-.18-.55-.56-.74-.09,0-.09-.09-.18-.09l.09-.09A9.14,9.14,0,0,0,108,8.71Z"/><path class="cls-1" d="M103.12,91.57V80.25a10.74,10.74,0,0,1,1.86.19c.65.09.93.74.93,1.48v8.17a1.34,1.34,0,0,1-1.39,1.48Z"/><path class="cls-1" d="M115,85.63V80.34h2a.85.85,0,0,1,.74.93v3.25a1,1,0,0,1-1,1.11A10.35,10.35,0,0,1,115,85.63Z"/><path class="cls-1" d="M127.71,85.91V81.64c0-1.2.28-1.48,1.49-1.48h.18c.93,0,1.39.37,1.39,1.3v8.9a1.13,1.13,0,0,1-1.3,1.3h-.65a1,1,0,0,1-1.11-1.2V85.91Z"/></svg>